<svg xmlns="http://www.w3.org/2000/svg" width="14" height="15" fill="none"><path fill="#666" d="M6.59766 14.9969c1.23758.0006 2.47455.0094 3.71214-.0059.3409-.0042.6958-.0361 1.0184-.1342 1.0696-.3255 1.6881-1.0629 1.7593-2.1376.0907-1.3683-.0749-2.7142-.7457-3.95552-.5199-.96186-1.3289-1.52669-2.46543-1.56332-.24472-.00768-.51074.0904-.73841.19793-.45352.21447-.86868.5087-1.33133.69835-1.04948.43071-2.06304.25346-3.02973-.2771-.1674-.09157-.33664-.1867-.48395-.30545-.49187-.39822-1.03852-.38049-1.60953-.2257-.8218.22274-1.4062.73144-1.791537 1.45106C.186954 10.0564.00554848 11.4773.163214 12.9272c.130272 1.2029 1.202276 2.0265 2.539076 2.0661.04079.0012.08097.0024.12175.0024 1.25828.0006 2.51595.0006 3.77362.0012Z"/><path fill="#666" d="M6.60675 7.27899c2.08678.0059 3.74435-1.59109 3.75835-3.62116.014-2.0147-1.64966-3.6477398-3.7267-3.65778382C4.55101-.0099978 2.8587 1.61949 2.85809 3.64188c-.00061 2.01234 1.66796 3.63179 3.74866 3.63711Z"/></svg>
