<svg width="120" height="50" viewBox="0 0 120 50" fill="none" xmlns="http://www.w3.org/2000/svg">
    <path d="M88.978 6.79129C88.9591 7.32303 88.9516 7.85568 88.9326 8.38742C88.8504 8.40409 88.7672 8.43229 88.6965 8.44987C88.6068 8.26889 88.5047 8.09852 88.3648 7.82083C87.5378 8.48568 86.6207 9.12022 85.8428 9.89329C85.1031 10.623 84.5123 11.5152 83.8581 12.3329C83.4353 12.8558 83.0019 13.3664 82.58 13.8778C82.1705 14.3786 81.7485 14.8901 81.3496 15.4033C80.5792 16.3741 79.8089 17.3448 79.05 18.3164C78.9596 18.4368 78.9114 18.6069 78.827 18.7972C79.0701 18.7933 79.2787 18.7866 79.4996 18.7693C79.8882 19.2638 78.9683 19.2026 79.1785 19.6133C78.3942 19.4469 78.103 19.6209 77.6224 20.29C77.1142 21.0149 76.5293 21.6873 75.9875 22.3979C75.4477 23.0855 73.083 26.2369 72.8341 26.4606C72.8649 26.5095 72.8957 26.5583 72.9265 26.6071C73.3257 26.3836 74.7416 26.3102 74.6591 26.4776C74.5177 26.8026 73.5889 27.1464 73.4438 27.2276C72.7057 27.6445 72.0831 28.2096 71.4701 28.7986C70.9705 29.2692 69.4084 30.8959 69.1265 31.2446C69.0751 31.3101 68.9847 31.4304 68.9847 31.4304C67.9616 32.3812 67.7711 31.1373 68.3569 30.4534C68.9869 29.7961 72.8554 25.3147 73.4725 24.5289C73.9742 23.8847 74.4107 23.1889 74.9116 22.5562C75.4134 21.912 75.969 21.3184 76.4928 20.6875C76.7357 20.3937 76.9459 20.0742 77.1392 19.8229C76.706 19.8929 76.2401 19.9372 75.7936 20.0294C75.3232 20.1312 74.8702 20.3041 74.4007 20.3944C74.1426 20.4435 73.8696 20.3871 73.6036 20.3893C73.5737 20.329 73.542 20.2917 73.5332 20.2562C73.3447 19.2791 73.4067 19.2261 74.4514 19.1697C75.3221 19.1226 76.2 18.9835 77.0637 18.8779C77.0752 18.8788 77.0991 18.8691 77.1106 18.8701C77.9511 19.2032 78.196 18.4459 78.5541 18.0106C79.4094 16.9886 80.188 15.9142 80.9992 14.8655C82.0665 13.501 83.1348 12.1249 84.2454 10.7986C85.075 9.80934 85.947 8.86983 86.8409 7.94366C87.3717 7.37128 88.039 6.972 88.7942 6.77674L88.978 6.79129Z" fill="#E5E5E5"/>
    <path d="M73.2975 20.7475C73.1082 20.8021 72.8836 20.8655 72.6819 20.9307C72.5988 20.9589 72.4936 20.9737 72.4537 21.0401C72.1466 21.5607 71.6018 21.7262 71.1011 21.9184C70.5049 22.1494 69.8903 22.321 69.2572 22.4332C69.0813 22.4657 68.7972 22.2577 68.6491 22.0837C68.3953 21.7854 68.2088 21.8054 67.936 22.0389C67.7501 22.198 67.5535 22.3448 67.328 22.4196C66.8061 22.587 66.271 22.7765 65.722 22.849C65.0554 22.9469 64.8834 22.7826 64.702 22.1538C64.6749 22.059 64.6601 21.9535 64.626 21.8001C64.1116 22.1651 63.6097 22.5195 63.1192 22.8748C62.7757 23.1258 62.4304 23.3999 62.0974 23.6633C61.7645 23.9268 61.1475 23.9823 60.8341 23.8532C60.3625 23.6767 60.2989 23.3123 60.4554 22.9422C60.6687 22.4374 60.9491 21.9612 61.2728 21.5231C62.1133 20.3956 62.9865 19.2939 63.8491 18.1798C64.3137 17.5674 64.7686 16.931 65.2341 16.3071C65.5178 15.9355 65.8112 15.5877 66.1064 15.2169C66.1578 15.1515 66.1872 15.0726 66.2289 14.9832C65.3909 15.056 64.9273 15.6569 64.4153 16.138C63.6402 16.8765 62.8959 17.6638 62.1746 18.453C61.1245 19.5986 60.0956 20.7692 59.0562 21.9273C58.1691 22.9119 57.2821 23.8966 56.4162 24.9062C55.5627 25.9051 54.7418 26.9298 53.9113 27.9305C53.3502 28.5933 52.7557 29.2417 52.2273 29.9302C51.7636 30.5311 51.3652 31.1835 50.9227 31.8092C50.2336 32.7748 49.534 33.7279 48.8565 34.6944C47.904 36.0681 43.3113 42.8338 42.9049 43.1494C42.6869 43.4219 41.5362 43.7945 42.0609 42.4218C42.4389 41.4432 48.8311 33.1159 48.9427 33.0204C48.9754 33.0462 48.9965 33.071 49.03 33.0853C48.9475 33.2526 48.8658 33.4084 48.7832 33.5758C53.0436 27.5025 58.0307 22.0316 63.0505 16.5864C62.5861 16.7583 62.2878 17.3143 61.6114 17.0985C61.964 16.7323 62.2858 16.3172 62.6904 16.0247C63.4748 15.4608 64.3323 14.9954 65.1282 14.4324C65.6922 14.0249 66.1848 13.4959 66.7276 13.0636C67.7274 12.2617 68.602 11.2876 69.8114 10.7574C69.9547 10.6992 70.0875 10.6285 70.229 10.5934C70.5358 10.5133 70.9242 10.7179 70.9712 10.9999C71.0137 11.3394 70.8171 11.4862 70.4979 11.5768C69.5631 11.8506 68.666 12.2317 67.9308 12.9038C67.7563 13.0639 67.5616 13.1876 67.304 13.3758C67.4639 13.4001 67.5328 13.4055 67.5893 13.4216C67.7828 13.4601 68.0957 13.4501 68.1564 13.5592C68.2557 13.7642 68.3088 14.1161 68.2023 14.2932C67.9379 14.7127 67.5623 15.0772 67.2318 15.4567C66.3447 16.4414 65.4154 17.3764 64.5715 18.3992C63.5734 19.6186 62.6503 20.9134 61.6954 22.1709C61.5793 22.324 61.4737 22.4895 61.369 22.6435C61.3893 22.6799 61.4086 22.7278 61.4403 22.7651C61.7278 22.6372 62.0586 22.5474 62.3047 22.3582C63.4813 21.5124 64.6473 20.6541 65.8028 19.7834C66.1472 19.5209 66.4388 19.1962 66.7524 18.8848C66.9278 18.7132 67.1546 18.4762 67.3395 18.769C67.4522 18.9518 67.4584 19.3117 67.35 19.5117C67.2 19.8013 66.8937 20.0205 66.6765 20.2815C66.3175 20.7284 65.9911 21.201 65.6859 21.6985C66.5547 21.6745 67.3637 21.5299 68.0815 21.0766C68.2639 20.9635 68.3547 20.6925 68.4974 20.4952C68.8849 19.981 69.2715 19.4783 69.6695 18.9766C69.7218 18.8996 69.8518 18.8635 69.9455 18.8478C70.5671 18.7347 71.1781 18.6091 71.796 18.5421C72.3096 18.4784 72.6438 18.7831 72.6965 19.2857C72.7294 19.6013 72.6799 19.9336 72.772 20.2307C72.8139 20.4311 73.0594 20.5432 73.2975 20.7475ZM72.0531 19.6753C71.6257 19.5256 71.2465 19.2057 70.9817 19.776C70.9808 19.7875 70.9569 19.7972 70.9454 19.7963C70.4198 19.7199 70.2726 20.2647 69.9107 20.4563C69.8381 20.4969 69.7661 20.6767 69.8066 20.7495C69.8356 20.8213 70.0033 20.8926 70.097 20.8768C70.4471 20.8349 70.8096 20.7825 71.1412 20.6812C71.6268 20.5342 71.8549 20.1349 72.0531 19.6753Z" fill="#E5E5E5"/>
    <path d="M118.354 18.4561C118.049 18.5131 117.753 18.6056 117.44 18.6156C115.759 18.6796 114.06 18.6842 112.387 18.7837C110.552 18.8935 108.711 19.0839 106.873 19.2283C106.373 19.2698 105.853 19.2635 105.352 19.3165C105.037 19.3496 104.737 19.4997 104.42 19.5557C103.636 19.6792 102.844 19.7556 102.06 19.879C101.602 19.9587 101.144 20.0615 100.693 20.1998C99.9354 20.4296 99.1942 20.3014 98.4379 20.2183C97.9908 20.1713 97.5162 20.1802 97.1071 20.5303C96.945 20.6798 96.6312 20.7013 96.3881 20.7053C95.9834 20.708 95.5423 20.731 95.1971 20.5646C94.8961 20.4249 94.707 20.039 94.4859 19.7664C93.9099 20.0338 93.2393 20.3285 92.5677 20.6347C92.3404 20.7327 92.1218 20.8661 91.8856 20.9285C91.3427 21.071 91.2438 21.0052 91.0524 20.5032C91.0059 20.3604 90.9355 20.2273 90.8564 20.0588C90.2795 20.3377 89.7247 20.63 89.1284 20.861C88.795 20.9853 88.4113 21.0129 88.0498 21.0538C87.56 21.1078 87.0615 21.1263 86.5718 21.1803C85.907 21.2552 85.6767 21.0979 85.5192 20.4594C85.5123 20.4009 85.493 20.353 85.4658 20.2581C84.9624 20.4849 84.4934 20.7144 84.0139 20.9315C83.7387 21.0488 83.4618 21.1892 83.1682 21.2471C82.6404 21.3444 82.2423 21.1158 81.9856 20.5623C81.6201 20.8 81.2784 21.028 80.927 21.232C80.7093 21.3539 80.4365 21.5873 80.2172 21.2917C80.0084 21.0086 79.7592 20.6527 80.0411 20.3041C80.6145 19.6307 81.2321 18.9841 81.8593 18.3614C81.9594 18.265 82.2493 18.2531 82.3941 18.3225C82.5053 18.3777 82.5454 18.6011 82.6016 18.7679C82.6296 18.8512 82.5879 18.9407 82.5788 19.0559C82.9733 18.89 83.2312 18.2613 83.718 18.6824C83.9782 18.9 83.6955 19.55 83.1431 19.9584C83.3498 19.9747 83.4964 20.0211 83.6149 19.9841C84.4446 19.7252 85.2751 19.4548 85.9041 18.809C86.2186 18.4861 86.2876 18.4916 86.6296 18.8432C87.022 18.1208 87.7376 17.8413 88.4294 17.5714C88.7036 17.4656 89.1383 17.5232 89.4031 17.6833C89.7455 17.8843 89.9717 18.2383 89.7841 18.7104C89.6961 18.9468 89.7095 19.2145 89.6725 19.5362C90.1732 19.344 90.7038 19.2121 91.187 18.9489C91.8268 18.6054 92.427 18.1776 93.0254 17.7729C93.2459 17.6165 93.4847 17.5195 93.6636 17.7423C93.8107 17.9278 93.9859 18.1967 93.7228 18.4541C93.5226 18.6469 93.3109 18.8388 93.0993 19.0307C92.9992 19.1271 92.8894 19.1996 92.7787 19.2836C92.8095 19.3324 92.8298 19.3687 92.8606 19.4175C93.6497 19.0859 94.4398 18.7427 95.2271 18.434C95.4058 18.367 95.663 18.3294 95.8069 18.4104C96.062 18.5465 95.9597 18.8166 95.884 19.0424C95.7203 19.5048 95.723 19.4702 96.2311 19.4757C96.9594 19.4753 97.6025 19.2364 98.2483 18.963C98.4031 18.9056 98.6232 18.8999 98.7564 18.9684C99.2578 19.2051 99.7297 19.2309 100.261 19.0875C100.733 18.9626 101.248 19.038 101.736 18.9956C103.226 18.87 104.718 18.7099 106.207 18.5959C107.602 18.4861 108.996 18.3994 110.402 18.3135C111.505 18.2501 112.609 18.1752 113.708 18.1579C114.819 18.1415 115.937 18.1836 117.057 18.2027C117.461 18.2115 117.876 18.2212 118.279 18.2415L118.354 18.4561ZM89.0453 18.6983C88.2618 18.5203 87.5425 18.8459 87.0893 19.8997C87.7247 19.9037 88.6956 19.3197 89.0453 18.6983Z" fill="#E5E5E5"/>
    <path d="M59.0577 18.6932C58.8014 18.7193 58.5106 18.7426 58.3034 18.8769C57.8671 19.1322 57.4395 19.423 57.0552 19.7519C56.1625 20.5159 55.3544 21.3793 54.3992 22.0572C54.2159 22.1818 54.0327 22.3064 53.8388 22.4186C53.8388 22.4186 53.8379 22.4301 53.8264 22.4292C53.1848 22.7957 52.4788 23.0992 51.8151 23.4524C52.0177 22.6454 52.9181 22.3689 53.0255 21.45C52.7646 21.5337 52.533 21.5385 52.3851 21.6543C51.7936 22.1176 51.2031 22.5693 50.8258 23.2466C50.5569 23.7238 50.7073 24.0139 51.2408 24.1372C51.6498 24.2276 52.0035 24.1396 52.3388 23.9923C51.2851 25.184 50.2323 26.3643 49.1689 27.5321C49.0794 27.6409 48.9343 27.7222 48.8052 27.7467C48.4639 27.824 48.1129 27.8774 47.7619 27.9308C47.5391 27.9711 47.3172 27.9999 47.0944 28.0402C46.555 28.1366 46.0042 28.2321 45.464 28.3401C44.9246 28.4365 44.3853 28.5329 43.8469 28.6178C42.7089 28.8292 41.5719 29.029 40.4243 29.2164L39.4986 29.3749C38.5376 29.5423 37.542 29.707 36.5598 29.8495C35.3796 30.0111 34.1538 30.0184 32.9407 29.8644L32.9293 29.8635C32.711 29.8462 32.4773 30.0248 32.3753 30.1443C32.3248 30.1982 32.307 30.278 32.3217 30.3835C32.3356 30.5005 32.3917 30.6672 32.4906 30.733C33.1593 31.1917 33.8651 31.3287 34.4825 31.1225C35.635 30.7268 36.769 30.7123 37.9311 31.0709C38.1457 31.1342 38.3488 31.1967 38.5644 31.2485C39.0395 31.3788 39.5367 31.5225 39.9949 31.7211C40.687 32.0309 41.2749 32.344 41.4224 33.1092C41.5759 33.9444 41.286 34.6865 40.9818 35.4623L40.9534 35.5296C40.763 36.0362 40.5612 36.5419 40.3488 37.0351C40.2208 37.338 40.1052 37.6302 39.9772 37.9331C39.9478 38.0119 39.9529 38.0934 39.9898 38.2123C40.1247 38.6982 40.2807 39.2091 40.9112 39.4212C40.9898 39.4506 41.0693 39.4685 41.1383 39.474C41.2072 39.4794 41.2655 39.4725 41.3257 39.4425C41.4469 39.3709 41.4933 39.2239 41.5263 39.099C41.5647 38.9049 41.6138 38.7234 41.7157 38.6039C42.1146 38.0907 42.5127 37.5889 42.9116 37.0757C43.244 36.6731 43.5658 36.258 43.8991 35.8439C44.3885 35.2103 44.8903 34.5661 45.3806 33.9209C45.7157 33.4838 46.0509 33.0466 46.3984 32.5988L46.6812 32.2387C47.5961 31.0475 48.5607 29.814 49.511 28.614C49.6528 28.4282 49.837 28.2921 49.9785 28.2569C50.2968 28.1778 50.6239 28.1341 50.9395 28.0895C51.1624 28.0492 51.3728 28.0195 51.5956 27.9792C51.7132 27.9537 51.8105 27.8918 51.8964 27.8291C51.9327 27.8088 51.9584 27.776 51.9947 27.7557L52.0912 27.7054L51.9728 27.3019L50.4788 27.485L50.8085 27.117C50.9733 26.933 51.1381 26.7489 51.3029 26.5649C52.1358 25.6803 52.9449 24.8054 53.7663 23.9198C53.9444 23.7137 54.1331 23.5199 54.3227 23.3147C55.1203 22.4388 55.9404 21.7155 56.8231 21.0782C57.534 20.5665 58.2113 20.0405 58.8552 19.5002C58.8923 19.4684 58.9419 19.4259 58.9801 19.3826C59.0696 19.2738 59.1591 19.1649 59.2486 19.0561C59.2867 19.0127 59.1152 18.6978 59.0577 18.6932ZM41.5265 37.1979C41.5416 37.1527 41.5567 37.1075 41.5719 37.0624C41.6796 36.7231 41.7998 36.3733 41.8979 36.0101L41.9497 35.7939C42.1646 34.9763 42.3805 34.1472 42.2669 33.2456C42.1464 32.2855 41.3584 31.4348 40.3401 31.1572C39.7289 30.9929 39.1196 30.8056 38.4767 30.604C38.3636 30.5718 38.2506 30.5397 38.1375 30.5076L48.2755 28.5974L41.5265 37.1979Z" fill="#E5E5E5"/>
    <path d="M43.2642 21.0831C43.7527 21.1914 44.3156 21.2359 44.5865 21.7558C44.9182 22.3849 44.7637 23.0218 44.0885 23.3741C43.0285 23.9162 41.9394 24.3864 40.8204 24.7963C40.3675 24.9691 39.8258 24.9494 39.3282 24.9564C38.7264 24.9667 38.3787 24.3944 38.5947 23.8551C38.6374 23.7541 38.7145 23.6559 38.7103 23.5628C38.6257 22.7331 39.186 22.3717 39.779 22.0361C40.8551 21.4373 41.9952 21.0523 43.2642 21.0831ZM40.1327 23.4088C40.8586 23.2923 41.578 23.2565 42.2528 23.0549C42.6199 22.9449 42.7063 23.0213 42.792 23.399C43.1594 23.1383 43.4983 22.9448 43.7729 22.6884C44.0599 22.4213 43.989 22.149 43.6172 22.0269C43.1545 21.8859 42.6821 21.721 42.2348 22.1145C42.1232 22.21 41.9279 22.1946 41.7828 22.2758C41.2261 22.5911 40.6915 22.9198 40.1464 23.236C40.134 23.2466 40.14 23.3166 40.1327 23.4088ZM39.3999 24.197C39.6087 24.4801 41.1665 24.2209 41.3689 23.8544C40.7367 23.955 40.0798 24.0769 39.3999 24.197Z" fill="#E5E5E5"/>
    <path d="M46.7824 23.367C46.467 23.7014 45.6076 24.9202 45.3247 24.9905C45.0302 25.0599 44.5361 24.731 44.4679 24.4242C44.3919 24.0704 44.6335 23.9389 44.9141 23.7524C45.5001 23.3583 46.0438 22.9145 46.5558 22.4333C47.3061 21.716 48.0035 20.9366 48.7432 20.2069C48.9567 19.9919 49.2787 19.8667 49.5449 20.1544C49.8217 20.4545 49.6363 20.7528 49.4113 20.9669C48.5627 21.7575 47.7045 22.5242 46.7824 23.367Z" fill="#E5E5E5"/>
    <path d="M49.6264 23.0704C49.8656 22.8227 50.103 22.5981 50.3422 22.3504C50.7578 21.9196 51.1627 21.4764 51.6003 21.0589C51.8377 20.8343 51.9621 20.5775 51.7515 20.3174C51.5303 20.0449 51.2092 20.1585 51.009 20.3514C50.5962 20.7476 50.2708 21.2087 49.8579 21.605C49.1811 22.2701 48.6101 23.0595 47.7411 23.524C47.6074 23.6062 47.4707 23.8736 47.4924 24.0376C47.5662 24.5651 47.6946 24.8418 48.2155 24.686C48.6657 24.5477 48.8717 24.1351 49.153 23.6473C49.1645 23.6483 49.5502 23.1571 49.6264 23.0704Z" fill="#E5E5E5"/>
    <path d="M88.5279 13.6414C88.5616 13.9455 88.485 14.1829 88.0071 14.0871C87.6096 13.9977 87.2129 13.6069 87.2297 13.2489C87.2534 12.9493 87.567 12.638 87.8064 12.6801C88.3541 12.7698 88.5858 13.0548 88.5279 13.6414Z" fill="#E5E5E5"/>
    <path d="M48.403 25.9644C48.3927 25.8013 48.2607 25.5706 47.307 25.6458C46.2728 25.7147 45.2377 25.7951 44.2026 25.8754C43.7487 25.9148 43.295 25.9514 42.8413 25.9879C42.3876 26.0245 41.9339 26.061 41.48 26.1004C41.3169 26.1165 41.151 26.1324 40.985 26.1482C40.819 26.1641 40.6531 26.1799 40.49 26.196C40.2977 26.2155 40.1083 26.2353 39.9189 26.2551C39.7295 26.2749 39.5401 26.2947 39.3479 26.3142C38.9527 26.3409 38.5576 26.3676 38.151 26.3934C37.9765 26.4079 37.8007 26.4209 37.6245 26.4339C37.2955 26.4582 36.965 26.4826 36.6386 26.5171C35.9049 26.5866 35.1703 26.6675 34.4003 26.7573L33.9689 26.8043L34.9533 25.7578C35.2513 25.4385 35.5465 25.1228 35.8398 24.8091C36.4291 24.179 37.0108 23.5568 37.593 22.9295C37.8393 22.665 38.0826 22.4031 38.3258 22.1412C38.569 21.8794 38.8122 21.6176 39.0585 21.3531C39.8806 20.4562 40.7142 19.5603 41.5478 18.6644L41.5485 18.6637C42.1224 18.0616 42.7045 17.4645 43.2874 16.8665C43.6647 16.4796 44.0423 16.0922 44.4182 15.703L45.6887 14.4009L45.2923 13.8594L45.1251 13.9273C45.0411 13.9671 44.9579 13.9953 44.8633 14.0225L44.8362 14.0315C44.6189 14.1035 44.3933 14.1782 44.2138 14.3421C43.6761 14.856 43.1711 15.3956 42.6784 15.9246L42.1619 16.4633C42.067 16.566 41.9694 16.6684 41.8717 16.7708C41.774 16.8731 41.6763 16.9755 41.5815 17.0782C41.489 17.1752 41.3978 17.2723 41.3067 17.3695C41.1243 17.5637 40.942 17.7579 40.7495 17.9513C40.4598 18.2529 40.171 18.5431 39.8698 18.8438L39.8688 18.8448C39.4545 19.2637 39.0402 19.6827 38.625 20.1132C38.4858 20.2644 38.3494 20.4188 38.2129 20.5732C38.0764 20.7276 37.9399 20.882 37.8008 21.0333C37.5846 21.2828 37.3683 21.5323 37.1406 21.7809C35.6732 23.3804 34.1438 25.0329 32.6056 26.65C32.4665 26.8013 32.2019 26.9311 31.9552 26.9811C31.6971 27.0302 31.4301 27.0439 31.1402 27.0557C31.0532 27.0604 30.9632 27.0649 30.8733 27.0693C30.7834 27.0738 30.6934 27.0783 30.6064 27.083C29.9999 27.1509 29.3944 27.2073 28.7889 27.2637C27.9031 27.3559 27.0059 27.4472 26.121 27.5279C25.5579 27.5803 24.9872 27.6021 24.4345 27.6232C24.3928 27.6248 24.3513 27.6264 24.3099 27.628L23.6488 27.6568C23.5899 27.659 23.5307 27.6615 23.4713 27.6641C23.1332 27.6784 22.7879 27.693 22.446 27.6659C21.9865 27.6295 21.5279 27.5817 21.0703 27.5223C20.9265 27.5081 20.7815 27.4931 20.6354 27.4781C20.1756 27.4307 19.7057 27.3823 19.2342 27.3538C17.8406 27.2898 16.4205 27.2702 15.0081 27.2975C13.2838 27.3233 11.8679 27.3967 10.5764 27.5032C9.63001 27.5872 8.66821 27.7257 7.75014 27.8578L7.69265 27.8661C7.23646 27.9343 6.78027 28.0026 6.32499 28.0593C6.14075 28.0853 5.94839 28.1018 5.76275 28.1177C5.73638 28.12 5.71015 28.1222 5.6841 28.1245C5.60241 28.1342 5.52076 28.1435 5.43911 28.1528C5.11252 28.1901 4.78593 28.2273 4.45701 28.294C3.42337 28.502 2.38518 28.7676 1.49996 28.9989C1.33207 29.0299 1.2203 29.1497 1.12265 29.2544C1.11796 29.2594 1.11331 29.2644 1.10868 29.2693C1.08297 29.3021 1.04486 29.3454 1.00766 29.3773L0.834083 29.5258L0.993621 29.7007C1.03683 29.7389 1.06765 29.7877 1.09846 29.8365C1.10958 29.8508 1.12068 29.8653 1.13185 29.8799C1.2366 30.0167 1.34712 30.161 1.53149 30.207C1.71054 30.2598 1.90075 30.2732 2.08562 30.2863C2.12233 30.2888 2.15883 30.2914 2.19499 30.2943C2.34523 30.2946 2.49456 30.3064 2.64298 30.3297C3.50642 30.4655 4.35462 30.3821 5.18057 30.3009C5.20645 30.2984 5.23231 30.2958 5.25815 30.2933L5.25835 30.2933C5.64282 30.2541 6.02729 30.215 6.41085 30.1874C7.00215 30.1647 7.59527 30.1189 8.18839 30.0731L10.316 29.9169C11.2459 29.8514 12.1643 29.785 13.0951 29.708C14.1426 29.617 15.1795 29.5136 16.2288 29.3995L17.8014 29.2458C18.1974 29.2076 18.605 29.1703 19.0125 29.133C19.8036 29.0681 20.5957 28.9917 21.3886 28.9037C22.3212 28.8037 23.1574 28.7539 23.9268 29.2553C24.488 29.6127 24.9698 29.9522 25.1019 30.4728C25.2106 30.8523 25.2352 31.2716 25.258 31.7139C25.2629 31.7862 25.2671 31.8596 25.2713 31.9337C25.2855 32.1823 25.3002 32.4383 25.3431 32.6828C25.446 33.2821 25.6314 33.7141 25.9127 33.9566C26.0203 34.0579 26.143 34.114 26.2809 34.1249C26.5451 34.1458 26.8574 33.9966 27.2073 33.665C27.3296 33.5465 27.4527 33.4281 27.5759 33.3095C27.9321 32.9668 28.2898 32.6226 28.6353 32.271C28.8745 32.0233 29.1164 31.7787 29.3583 31.5341C29.6001 31.2896 29.842 31.045 30.0812 30.7973C30.3896 30.4881 30.6967 30.1788 31.0032 29.87C31.5702 29.2988 32.1355 28.7292 32.7053 28.1649C32.8559 28.0145 33.0737 27.8927 33.2611 27.8611C33.6081 27.8 33.9736 27.7721 34.33 27.7449L34.3802 27.741C34.454 27.7364 34.5303 27.7295 34.608 27.7225C34.7015 27.7141 34.7969 27.7055 34.892 27.7004L36.3718 27.5509C37.7455 27.4278 39.1086 27.2922 40.4726 27.1452C40.7534 27.1195 41.0296 27.0824 41.304 27.0456C41.4279 27.0289 41.5515 27.0123 41.6749 26.9969C42.1426 26.9296 42.6103 26.8622 43.0762 26.818C43.7745 26.7573 44.4719 26.7082 45.1684 26.6706L45.1685 26.6706C45.7262 26.6336 46.2839 26.5966 46.8426 26.5481C48.2383 26.4383 48.4183 26.2091 48.403 25.9644ZM31.258 28.0504C30.9187 28.3945 30.5794 28.7385 30.2391 29.0942C30.1918 29.1421 30.1445 29.1902 30.0971 29.2383C29.061 30.2905 27.9933 31.3747 26.7369 32.3062L26.6774 32.0349C26.5927 31.6456 26.5176 31.2803 26.4433 30.9035C26.2406 29.9601 25.8156 29.1961 25.1683 28.6117L31.258 28.0504ZM20.2193 28.1968C19.6366 28.2546 19.0541 28.313 18.4717 28.3714C13.337 28.8863 8.21243 29.4002 3.05688 29.4815C8.72811 28.3654 14.4161 27.6216 20.2193 28.1968Z" fill="url(#paint0_linear_674_1886)"/>
    <path d="M48.403 25.9644C48.3927 25.8013 48.2607 25.5706 47.307 25.6458C46.2728 25.7147 45.2377 25.7951 44.2026 25.8754C43.7487 25.9148 43.295 25.9514 42.8413 25.9879C42.3876 26.0245 41.9339 26.061 41.48 26.1004C41.3169 26.1165 41.151 26.1324 40.985 26.1482C40.819 26.1641 40.6531 26.1799 40.49 26.196C40.2977 26.2155 40.1083 26.2353 39.9189 26.2551C39.7295 26.2749 39.5401 26.2947 39.3479 26.3142C38.9527 26.3409 38.5576 26.3676 38.151 26.3934C37.9765 26.4079 37.8007 26.4209 37.6245 26.4339C37.2955 26.4582 36.965 26.4826 36.6386 26.5171C35.9049 26.5866 35.1703 26.6675 34.4003 26.7573L33.9689 26.8043L34.9533 25.7578C35.2513 25.4385 35.5465 25.1228 35.8398 24.8091C36.4291 24.179 37.0108 23.5568 37.593 22.9295C37.8393 22.665 38.0826 22.4031 38.3258 22.1412C38.569 21.8794 38.8122 21.6176 39.0585 21.3531C39.8806 20.4562 40.7142 19.5603 41.5478 18.6644L41.5485 18.6637C42.1224 18.0616 42.7045 17.4645 43.2874 16.8665C43.6647 16.4796 44.0423 16.0922 44.4182 15.703L45.6887 14.4009L45.2923 13.8594L45.1251 13.9273C45.0411 13.9671 44.9579 13.9953 44.8633 14.0225L44.8362 14.0315C44.6189 14.1035 44.3933 14.1782 44.2138 14.3421C43.6761 14.856 43.1711 15.3956 42.6784 15.9246L42.1619 16.4633C42.067 16.566 41.9694 16.6684 41.8717 16.7708C41.774 16.8731 41.6763 16.9755 41.5815 17.0782C41.489 17.1752 41.3978 17.2723 41.3067 17.3695C41.1243 17.5637 40.942 17.7579 40.7495 17.9513C40.4598 18.2529 40.171 18.5431 39.8698 18.8438L39.8688 18.8448C39.4545 19.2637 39.0402 19.6827 38.625 20.1132C38.4858 20.2644 38.3494 20.4188 38.2129 20.5732C38.0764 20.7276 37.9399 20.882 37.8008 21.0333C37.5846 21.2828 37.3683 21.5323 37.1406 21.7809C35.6732 23.3804 34.1438 25.0329 32.6056 26.65C32.4665 26.8013 32.2019 26.9311 31.9552 26.9811C31.6971 27.0302 31.4301 27.0439 31.1402 27.0557C31.0532 27.0604 30.9632 27.0649 30.8733 27.0693C30.7834 27.0738 30.6934 27.0783 30.6064 27.083C29.9999 27.1509 29.3944 27.2073 28.7889 27.2637C27.9031 27.3559 27.0059 27.4472 26.121 27.5279C25.5579 27.5803 24.9872 27.6021 24.4345 27.6232C24.3928 27.6248 24.3513 27.6264 24.3099 27.628L23.6488 27.6568C23.5899 27.659 23.5307 27.6615 23.4713 27.6641C23.1332 27.6784 22.7879 27.693 22.446 27.6659C21.9865 27.6295 21.5279 27.5817 21.0703 27.5223C20.9265 27.5081 20.7815 27.4931 20.6354 27.4781C20.1756 27.4307 19.7057 27.3823 19.2342 27.3538C17.8406 27.2898 16.4205 27.2702 15.0081 27.2975C13.2838 27.3233 11.8679 27.3967 10.5764 27.5032C9.63001 27.5872 8.66821 27.7257 7.75014 27.8578L7.69265 27.8661C7.23646 27.9343 6.78027 28.0026 6.32499 28.0593C6.14075 28.0853 5.94839 28.1018 5.76275 28.1177C5.73638 28.12 5.71015 28.1222 5.6841 28.1245C5.60241 28.1342 5.52076 28.1435 5.43911 28.1528C5.11252 28.1901 4.78593 28.2273 4.45701 28.294C3.42337 28.502 2.38518 28.7676 1.49996 28.9989C1.33207 29.0299 1.2203 29.1497 1.12265 29.2544C1.11796 29.2594 1.11331 29.2644 1.10868 29.2693C1.08297 29.3021 1.04486 29.3454 1.00766 29.3773L0.834083 29.5258L0.993621 29.7007C1.03683 29.7389 1.06765 29.7877 1.09846 29.8365C1.10958 29.8508 1.12068 29.8653 1.13185 29.8799C1.2366 30.0167 1.34712 30.161 1.53149 30.207C1.71054 30.2598 1.90075 30.2732 2.08562 30.2863C2.12233 30.2888 2.15883 30.2914 2.19499 30.2943C2.34523 30.2946 2.49456 30.3064 2.64298 30.3297C3.50642 30.4655 4.35462 30.3821 5.18057 30.3009C5.20645 30.2984 5.23231 30.2958 5.25815 30.2933L5.25835 30.2933C5.64282 30.2541 6.02729 30.215 6.41085 30.1874C7.00215 30.1647 7.59527 30.1189 8.18839 30.0731L10.316 29.9169C11.2459 29.8514 12.1643 29.785 13.0951 29.708C14.1426 29.617 15.1795 29.5136 16.2288 29.3995L17.8014 29.2458C18.1974 29.2076 18.605 29.1703 19.0125 29.133C19.8036 29.0681 20.5957 28.9917 21.3886 28.9037C22.3212 28.8037 23.1574 28.7539 23.9268 29.2553C24.488 29.6127 24.9698 29.9522 25.1019 30.4728C25.2106 30.8523 25.2352 31.2716 25.258 31.7139C25.2629 31.7862 25.2671 31.8596 25.2713 31.9337C25.2855 32.1823 25.3002 32.4383 25.3431 32.6828C25.446 33.2821 25.6314 33.7141 25.9127 33.9566C26.0203 34.0579 26.143 34.114 26.2809 34.1249C26.5451 34.1458 26.8574 33.9966 27.2073 33.665C27.3296 33.5465 27.4527 33.4281 27.5759 33.3095C27.9321 32.9668 28.2898 32.6226 28.6353 32.271C28.8745 32.0233 29.1164 31.7787 29.3583 31.5341C29.6001 31.2896 29.842 31.045 30.0812 30.7973C30.3896 30.4881 30.6967 30.1788 31.0032 29.87C31.5702 29.2988 32.1355 28.7292 32.7053 28.1649C32.8559 28.0145 33.0737 27.8927 33.2611 27.8611C33.6081 27.8 33.9736 27.7721 34.33 27.7449L34.3802 27.741C34.454 27.7364 34.5303 27.7295 34.608 27.7225C34.7015 27.7141 34.7969 27.7055 34.892 27.7004L36.3718 27.5509C37.7455 27.4278 39.1086 27.2922 40.4726 27.1452C40.7534 27.1195 41.0296 27.0824 41.304 27.0456C41.4279 27.0289 41.5515 27.0123 41.6749 26.9969C42.1426 26.9296 42.6103 26.8622 43.0762 26.818C43.7745 26.7573 44.4719 26.7082 45.1684 26.6706L45.1685 26.6706C45.7262 26.6336 46.2839 26.5966 46.8426 26.5481C48.2383 26.4383 48.4183 26.2091 48.403 25.9644ZM31.258 28.0504C30.9187 28.3945 30.5794 28.7385 30.2391 29.0942C30.1918 29.1421 30.1445 29.1902 30.0971 29.2383C29.061 30.2905 27.9933 31.3747 26.7369 32.3062L26.6774 32.0349C26.5927 31.6456 26.5176 31.2803 26.4433 30.9035C26.2406 29.9601 25.8156 29.1961 25.1683 28.6117L31.258 28.0504ZM20.2193 28.1968C19.6366 28.2546 19.0541 28.313 18.4717 28.3714C13.337 28.8863 8.21243 29.4002 3.05688 29.4815C8.72811 28.3654 14.4161 27.6216 20.2193 28.1968Z" stroke="url(#paint1_linear_674_1886)"/>
    <defs>
        <linearGradient id="paint0_linear_674_1886" x1="2.34305" y1="10.4602" x2="49.3397" y2="14.1798" gradientUnits="userSpaceOnUse">
            <stop stop-color="#FFB800"/>
            <stop offset="1" stop-color="#FF855F"/>
        </linearGradient>
        <linearGradient id="paint1_linear_674_1886" x1="2.34305" y1="10.4602" x2="49.3397" y2="14.1798" gradientUnits="userSpaceOnUse">
            <stop stop-color="#FFB800"/>
            <stop offset="1" stop-color="#FF855F"/>
        </linearGradient>
    </defs>
</svg>
