<svg width="157" height="65" viewBox="0 0 157 65" fill="none" xmlns="http://www.w3.org/2000/svg">
    <path d="M117.299 8.95281C117.274 9.6538 117.264 10.356 117.239 11.057C117.13 11.079 117.021 11.1161 116.928 11.1393C116.809 10.9007 116.675 10.6761 116.49 10.31C115.4 11.1865 114.191 12.023 113.166 13.0422C112.19 14.0042 111.412 15.1803 110.549 16.2582C109.992 16.9476 109.42 17.6207 108.864 18.2949C108.324 18.9551 107.768 19.6294 107.242 20.306C106.227 21.5857 105.211 22.8654 104.211 24.1463C104.091 24.305 104.028 24.5292 103.917 24.7802C104.237 24.775 104.512 24.7662 104.803 24.7434C105.316 25.3952 104.103 25.3145 104.38 25.856C103.346 25.6367 102.962 25.8661 102.329 26.7481C101.659 27.7037 100.888 28.5901 100.173 29.5269C99.4616 30.4334 96.3443 34.5878 96.0162 34.8828C96.0568 34.9471 96.0974 35.0115 96.1381 35.0758C96.6642 34.7813 98.5309 34.6845 98.422 34.9051C98.2357 35.3335 97.0113 35.7868 96.82 35.8939C95.847 36.4434 95.0261 37.1884 94.218 37.965C93.5594 38.5852 91.5002 40.7298 91.1286 41.1894C91.0608 41.2758 90.9416 41.4344 90.9416 41.4344C89.5928 42.6878 89.3417 41.048 90.114 40.1464C90.9445 39.2799 96.0443 33.3721 96.8578 32.3362C97.5192 31.4869 98.0947 30.5697 98.755 29.7356C99.4165 28.8863 100.149 28.1038 100.839 27.2721C101.16 26.8848 101.437 26.4636 101.692 26.1323C101.12 26.2246 100.506 26.283 99.9177 26.4045C99.2975 26.5388 98.7004 26.7666 98.0815 26.8857C97.7411 26.9505 97.3813 26.8761 97.0306 26.879C96.9912 26.7994 96.9494 26.7503 96.9378 26.7035C96.6893 25.4154 96.771 25.3455 98.1483 25.2711C99.2961 25.2091 100.453 25.0257 101.592 24.8866C101.607 24.8878 101.639 24.875 101.654 24.8762C102.762 25.3154 103.085 24.317 103.557 23.7431C104.684 22.3958 105.711 20.9795 106.78 19.597C108.187 17.7982 109.596 15.9841 111.06 14.2356C112.153 12.9315 113.303 11.6929 114.481 10.472C115.181 9.71741 116.061 9.19104 117.056 8.93364L117.299 8.95281Z" fill="#E5E5E5"/>
    <path d="M96.628 27.3514C96.3785 27.4233 96.0824 27.5069 95.8166 27.5928C95.707 27.63 95.5683 27.6496 95.5156 27.7371C95.1108 28.4233 94.3926 28.6415 93.7326 28.8949C92.9466 29.1995 92.1363 29.4257 91.3018 29.5736C91.0698 29.6164 90.6953 29.3422 90.5001 29.1128C90.1656 28.7196 89.9197 28.746 89.5601 29.0537C89.3149 29.2635 89.0558 29.457 88.7585 29.5557C88.0705 29.7763 87.365 30.0261 86.6413 30.1217C85.7625 30.2508 85.5359 30.0342 85.2967 29.2053C85.2609 29.0802 85.2414 28.9411 85.1965 28.7389C84.5184 29.2201 83.8567 29.6873 83.2101 30.1557C82.7572 30.4867 82.302 30.848 81.8631 31.1953C81.4242 31.5426 80.6108 31.6157 80.1976 31.4455C79.576 31.2129 79.4921 30.7326 79.6983 30.2446C79.9796 29.5791 80.3493 28.9513 80.7759 28.3738C81.884 26.8874 83.0351 25.4351 84.1723 23.9663C84.7848 23.159 85.3845 22.3201 85.9982 21.4976C86.3722 21.0076 86.7589 20.5492 87.1481 20.0604C87.2159 19.9741 87.2546 19.8702 87.3096 19.7523C86.2049 19.8483 85.5936 20.6404 84.9187 21.2746C83.8969 22.2482 82.9157 23.2862 81.9648 24.3265C80.5805 25.8368 79.2241 27.3799 77.8538 28.9066C76.6844 30.2047 75.515 31.5028 74.3735 32.8337C73.2483 34.1505 72.1662 35.5014 71.0713 36.8207C70.3317 37.6943 69.5479 38.5492 68.8513 39.4568C68.24 40.249 67.7148 41.109 67.1314 41.9339C66.2231 43.2068 65.3008 44.4634 64.4076 45.7375C63.1519 47.5483 57.0975 56.4675 56.5617 56.8836C56.2742 57.2429 54.7573 57.7341 55.4491 55.9245C55.9474 54.6344 64.3742 43.6565 64.5213 43.5306C64.5643 43.5646 64.5922 43.5974 64.6364 43.6161C64.5275 43.8367 64.4199 44.0422 64.311 44.2628C69.9274 36.2564 76.502 29.0441 83.1195 21.8658C82.5073 22.0924 82.1141 22.8254 81.2223 22.5409C81.6872 22.0581 82.1115 21.5109 82.6448 21.1252C83.6789 20.3819 84.8093 19.7684 85.8585 19.0262C86.602 18.489 87.2515 17.7916 87.967 17.2217C89.285 16.1646 90.438 14.8805 92.0324 14.1814C92.2213 14.1047 92.3963 14.0116 92.5828 13.9652C92.9874 13.8597 93.4993 14.1294 93.5613 14.5011C93.6173 14.9487 93.3582 15.1422 92.9373 15.2617C91.705 15.6226 90.5224 16.125 89.5532 17.011C89.3232 17.2221 89.0665 17.3851 88.7268 17.6333C88.9376 17.6653 89.0285 17.6725 89.103 17.6937C89.358 17.7444 89.7705 17.7312 89.8505 17.8751C89.9815 18.1452 90.0515 18.6092 89.9111 18.8426C89.5626 19.3958 89.0674 19.8761 88.6316 20.3765C87.4622 21.6746 86.2371 22.9072 85.1247 24.2556C83.8089 25.8631 82.5919 27.57 81.3331 29.2278C81.18 29.4296 81.0408 29.6479 80.9028 29.8509C80.9295 29.8988 80.955 29.962 80.9968 30.0111C81.3759 29.8425 81.8119 29.7242 82.1364 29.4748C83.6875 28.3597 85.2246 27.2282 86.7478 26.0804C87.2019 25.7343 87.5862 25.3062 87.9997 24.8958C88.2309 24.6696 88.5299 24.3571 88.7736 24.7431C88.9222 24.9841 88.9304 25.4585 88.7876 25.7223C88.5897 26.1039 88.1859 26.3929 87.8997 26.737C87.4264 27.3261 86.9961 27.9492 86.5937 28.605C87.7391 28.5734 88.8056 28.3827 89.7519 27.7852C89.9923 27.6361 90.112 27.2789 90.3002 27.0187C90.811 26.3409 91.3205 25.6782 91.8453 25.0168C91.9143 24.9153 92.0856 24.8677 92.2092 24.8469C93.0286 24.6978 93.8341 24.5323 94.6487 24.444C95.3258 24.36 95.7664 24.7617 95.8358 25.4243C95.8791 25.8403 95.8139 26.2784 95.9353 26.67C95.9906 26.9342 96.3141 27.082 96.628 27.3514ZM94.9876 25.9379C94.4241 25.7405 93.9242 25.3189 93.5752 26.0706C93.574 26.0858 93.5425 26.0986 93.5273 26.0974C92.8344 25.9967 92.6404 26.7149 92.1633 26.9675C92.0676 27.021 91.9726 27.258 92.026 27.3539C92.0642 27.4486 92.2854 27.5426 92.4089 27.5218C92.8704 27.4666 93.3483 27.3975 93.7855 27.264C94.4256 27.0701 94.7263 26.5438 94.9876 25.9379Z" fill="#E5E5E5"/>
    <path d="M45.1686 35.1428L45.3324 35.1249C45.3326 35.1249 45.3329 35.1249 45.3331 35.1249C46.3482 35.0065 47.3173 34.8997 48.2856 34.8081C48.7177 34.7623 49.1576 34.7298 49.5927 34.6977C49.8244 34.6806 50.0548 34.6636 50.2819 34.6447L50.2848 34.6445C50.8196 34.6106 51.3393 34.5755 51.8594 34.5404C52.1118 34.5147 52.3604 34.4887 52.6093 34.4627L52.6101 34.4626C52.8595 34.4366 53.1091 34.4105 53.3625 34.3847L53.363 34.3847C53.5783 34.3635 53.7973 34.3425 54.0161 34.3217C54.2349 34.3008 54.4535 34.2799 54.6682 34.2587L54.6699 34.2586C55.2687 34.2066 55.867 34.1584 56.4649 34.1102L56.4654 34.1102C57.0636 34.062 57.6612 34.0139 58.2591 33.9619L58.2604 33.9618L58.2611 33.9618C59.625 33.8559 60.9898 33.7499 62.3536 33.6591C62.9882 33.6091 63.377 33.6577 63.6146 33.764C63.7369 33.8187 63.8235 33.8906 63.8798 33.9756C63.936 34.0605 63.9545 34.1472 63.9591 34.2193C63.9654 34.3209 63.9519 34.4345 63.8819 34.545C63.8133 34.653 63.7011 34.7416 63.5419 34.816C63.2286 34.9623 62.6857 35.0751 61.7647 35.1476C61.027 35.2116 60.2908 35.2605 59.5563 35.3092L59.5552 35.3093L59.5533 35.3094C58.6369 35.3589 57.7194 35.4235 56.8006 35.5033C56.1909 35.5613 55.5781 35.6495 54.9612 35.7382L54.9585 35.7386C54.7985 35.7587 54.6371 35.7803 54.4745 35.8021C54.1116 35.8508 53.7427 35.9004 53.3697 35.9345C51.5714 36.1284 49.7742 36.3071 47.963 36.4695C47.9628 36.4695 47.9625 36.4695 47.9622 36.4695L46.0131 36.6665L46.0061 36.6672L46.0061 36.667C45.8943 36.6731 45.7816 36.6828 45.6684 36.693L45.6365 36.6958C45.5349 36.705 45.4328 36.7141 45.3338 36.7204C45.3335 36.7205 45.3331 36.7205 45.3328 36.7205L45.2709 36.7253C44.7991 36.7613 44.324 36.7976 43.8739 36.8768L43.8728 36.877C43.6619 36.9125 43.402 37.0553 43.2213 37.2357L43.2208 37.2362C42.47 37.9798 41.7255 38.7298 40.9784 39.4825C40.5745 39.8894 40.1698 40.2971 39.763 40.7049C39.4472 41.0319 39.128 41.3547 38.8095 41.6767C38.4906 41.9992 38.1723 42.321 37.8577 42.6468L37.8568 42.6478C37.3996 43.1129 36.9258 43.5688 36.4559 44.0209C36.2937 44.177 36.132 44.3326 35.9716 44.488L35.9704 44.4891C35.4993 44.9357 35.0469 45.1688 34.6341 45.1361C34.417 45.1189 34.2246 45.03 34.0603 44.8763C33.6509 44.5218 33.3991 43.9105 33.2619 43.111M45.1686 35.1428L7.49335 37.0763C7.38567 37.0892 7.27803 37.1014 7.17039 37.1137C6.73985 37.1627 6.30931 37.2118 5.87569 37.2997L5.8461 37.1527C5.84602 37.1527 5.84595 37.1527 5.84588 37.1527C4.48071 37.4274 3.11051 37.7779 1.94451 38.0826C1.67587 38.1344 1.49851 38.3254 1.37544 38.458C1.36743 38.4666 1.35965 38.475 1.35209 38.483L1.35167 38.4827L1.34363 38.4929C1.31299 38.5319 1.26961 38.5807 1.23091 38.6139L1.00208 38.8097L0.884456 38.9104L0.988782 39.0247L1.1991 39.2553L1.20454 39.2613L1.21058 39.2666C1.2488 39.3004 1.27866 39.3458 1.3213 39.4134L1.32524 39.4196L1.32978 39.4254C1.34375 39.4434 1.35818 39.4624 1.37317 39.4821C1.50641 39.6575 1.68397 39.8913 1.97947 39.9664C2.23184 40.0404 2.50087 40.0592 2.7435 40.0762C2.79072 40.0795 2.83695 40.0827 2.88185 40.0863L2.88182 40.0867L2.89339 40.0867C3.08375 40.0871 3.27292 40.1021 3.46096 40.1316C4.61854 40.3137 5.75366 40.202 6.83796 40.0953C6.87418 40.0918 6.91036 40.0882 6.94647 40.0847L6.94701 40.0846C7.4535 40.0331 7.95742 39.9819 8.45976 39.9457C9.24138 39.9155 10.0249 39.855 10.8051 39.7948L10.8057 39.7947L10.8063 39.7947L13.6101 39.5889C13.6101 39.5889 13.6102 39.5889 13.6102 39.5889C14.8362 39.5025 16.0476 39.4149 17.2756 39.3133L17.2762 39.3132C18.6581 39.1932 20.0259 39.0568 21.4098 38.9064C21.4101 38.9064 21.4103 38.9064 21.4106 38.9063L23.482 38.7038C24.0034 38.6535 24.54 38.6044 25.0771 38.5552C26.121 38.4696 27.1662 38.3688 28.2125 38.2527C29.4447 38.1205 30.4959 38.064 31.4607 38.6927L31.4621 38.6936C31.8323 38.9293 32.165 39.1524 32.4266 39.3982C32.6866 39.6426 32.8685 39.9024 32.9464 40.2089L32.9463 40.209L32.9476 40.2133C33.0853 40.6945 33.1175 41.2299 33.1477 41.8159L33.1479 41.8183C33.1541 41.9101 33.1595 42.0046 33.165 42.1008C33.1837 42.4298 33.2037 42.7793 33.2619 43.111M45.1686 35.1428L46.188 34.059L46.1884 34.0586C46.581 33.6381 46.9698 33.2222 47.3563 32.8089C48.1334 31.9778 48.9007 31.1572 49.6685 30.33C49.9932 29.9812 50.3139 29.636 50.6345 29.2908L50.6345 29.2908C50.9552 28.9456 51.2758 28.6004 51.6004 28.2518L51.6012 28.2509C52.6846 27.0691 53.7832 25.8884 54.8822 24.7071C55.6384 23.9139 56.4044 23.1282 57.1721 22.3407C57.6693 21.8306 58.1673 21.3197 58.6639 20.8055C58.664 20.8055 58.6641 20.8054 58.6642 20.8053L60.3385 19.0893L60.4272 18.9984L60.3522 18.8959L59.8296 18.1822L59.7605 18.0878L59.6522 18.1318L59.4318 18.2213L59.4317 18.2211L59.4241 18.2247C59.3234 18.2723 59.2223 18.3068 59.1015 18.3417L59.1014 18.3416L59.0958 18.3434C59.0815 18.3482 59.0671 18.3529 59.0525 18.3577C58.7721 18.4504 58.4466 18.558 58.1857 18.7963L58.1857 18.7963L58.1832 18.7986C57.471 19.4792 56.8026 20.1934 56.1536 20.8904C56.1534 20.8906 56.1532 20.8908 56.1529 20.8911L55.4735 21.5997L55.4716 21.6017C55.3475 21.736 55.2196 21.8701 55.0907 22.0052L55.0904 22.0055C54.9621 22.1399 54.8329 22.2754 54.7073 22.4113C54.5841 22.5406 54.4634 22.6692 54.3431 22.7974C54.1036 23.0524 53.8659 23.3057 53.6135 23.5592L53.6117 23.5611C53.2309 23.9576 52.8511 24.3391 52.4541 24.7355L52.4534 24.7362L52.4525 24.7371C51.9063 25.2894 51.3594 25.8425 50.8111 26.4109L50.8111 26.4109L50.8087 26.4135C50.6243 26.614 50.4435 26.8185 50.2639 27.0217L50.2635 27.0222C50.0834 27.2259 49.9045 27.4283 49.7222 27.6265L49.7222 27.6264L49.7193 27.6298C49.434 27.9589 49.1503 28.2863 48.8516 28.6122L45.1686 35.1428ZM33.2619 43.111C33.2619 43.1109 33.2619 43.1109 33.2619 43.1108L33.4097 43.0855L33.262 43.1114C33.262 43.1113 33.262 43.1112 33.2619 43.111ZM32.0477 36.4217C32.1023 36.4196 32.157 36.4175 32.2119 36.4154C32.9405 36.3876 33.6929 36.3589 34.4352 36.2898C35.6017 36.1834 36.7845 36.0631 37.9522 35.9416L32.0477 36.4217ZM32.0477 36.4217L31.1761 36.4597L32.0477 36.4217ZM27.7768 36.2824C27.5873 36.2637 27.3962 36.244 27.2036 36.2242C26.5974 36.1617 25.9779 36.0978 25.3564 36.0602C23.5193 35.976 21.647 35.95 19.7852 35.9861C17.512 36.0201 15.6454 36.1169 13.9428 36.2572L27.7768 36.2824ZM10.1412 36.7357C9.53982 36.8256 8.93843 36.9156 8.33824 36.9903L10.1412 36.7357ZM35.0073 40.7109L35.0068 40.7084C34.7593 39.5569 34.2645 38.5982 33.5199 37.8378L40.8123 37.1656C40.461 37.5223 40.1092 37.8815 39.7565 38.2501C39.6952 38.3123 39.6338 38.3746 39.5723 38.437C38.2564 39.7734 36.9104 41.1401 35.3437 42.3291L35.3153 42.1994C35.2038 41.6874 35.105 41.2068 35.0073 40.7109ZM25.0095 37.1851C24.7851 37.2075 24.5608 37.23 24.3365 37.2525C18.1657 37.8713 12.0123 38.4884 5.82958 38.6738C12.1796 37.4973 18.545 36.7474 25.0095 37.1851Z" fill="url(#paint0_linear_915_9652)" stroke="url(#paint1_linear_915_9652)" stroke-width="0.3"/>
    <path d="M156.026 24.3304C155.624 24.4056 155.234 24.5275 154.821 24.5407C152.605 24.6251 150.365 24.6311 148.16 24.7623C145.741 24.907 143.313 25.1581 140.891 25.3484C140.231 25.4032 139.546 25.3948 138.885 25.4648C138.471 25.5083 138.074 25.7062 137.657 25.7801C136.623 25.9428 135.579 26.0435 134.545 26.2062C133.942 26.3114 133.337 26.4469 132.744 26.6291C131.745 26.9321 130.767 26.7631 129.77 26.6536C129.181 26.5917 128.555 26.6033 128.016 27.0649C127.802 27.2619 127.389 27.2903 127.068 27.2955C126.535 27.2991 125.953 27.3295 125.498 27.1101C125.101 26.9259 124.852 26.4171 124.561 26.0579C123.801 26.4104 122.917 26.7989 122.032 27.2025C121.732 27.3316 121.444 27.5075 121.133 27.5898C120.417 27.7777 120.287 27.691 120.034 27.0291C119.973 26.8409 119.88 26.6655 119.776 26.4433C119.015 26.811 118.284 27.1962 117.498 27.5008C117.058 27.6647 116.553 27.7011 116.076 27.755C115.43 27.8262 114.773 27.8506 114.127 27.9217C113.251 28.0205 112.948 27.8131 112.74 26.9714C112.731 26.8943 112.705 26.8311 112.669 26.706C112.006 27.005 111.388 27.3076 110.755 27.5937C110.393 27.7484 110.028 27.9334 109.641 28.0098C108.945 28.1381 108.42 27.8368 108.082 27.107C107.6 27.4204 107.149 27.7209 106.686 27.9899C106.399 28.1506 106.039 28.4583 105.75 28.0687C105.475 27.6954 105.146 27.2262 105.518 26.7666C106.274 25.879 107.088 25.0265 107.915 24.2056C108.047 24.0785 108.429 24.0629 108.62 24.1544C108.767 24.2271 108.82 24.5217 108.894 24.7415C108.931 24.8514 108.876 24.9693 108.863 25.1211C109.384 24.9025 109.724 24.0736 110.365 24.6287C110.708 24.9157 110.336 25.7725 109.607 26.3109C109.88 26.3325 110.073 26.3936 110.229 26.3448C111.323 26.0035 112.418 25.647 113.247 24.7957C113.662 24.3701 113.753 24.3772 114.204 24.8408C114.721 23.8884 115.664 23.5199 116.576 23.1642C116.938 23.0247 117.511 23.1006 117.86 23.3117C118.311 23.5766 118.61 24.0434 118.362 24.6657C118.246 24.9774 118.264 25.3303 118.215 25.7543C118.875 25.5009 119.575 25.327 120.212 24.9801C121.055 24.5273 121.846 23.9634 122.635 23.4298C122.926 23.2236 123.241 23.0957 123.477 23.3894C123.67 23.634 123.901 23.9885 123.555 24.3278C123.291 24.582 123.012 24.835 122.733 25.088C122.601 25.2151 122.456 25.3106 122.31 25.4213C122.351 25.4856 122.377 25.5336 122.418 25.5979C123.458 25.1607 124.5 24.7082 125.538 24.3014C125.773 24.213 126.112 24.1635 126.302 24.2702C126.638 24.4496 126.503 24.8057 126.404 25.1034C126.188 25.7129 126.191 25.6674 126.861 25.6745C127.821 25.6741 128.669 25.3591 129.52 24.9986C129.725 24.9231 130.015 24.9155 130.19 25.0058C130.851 25.3179 131.473 25.3519 132.174 25.1628C132.797 24.9981 133.475 25.0976 134.119 25.0417C136.082 24.8762 138.05 24.6651 140.012 24.5147C141.852 24.37 143.69 24.2557 145.542 24.1425C146.997 24.0589 148.452 23.9602 149.901 23.9374C151.366 23.9157 152.84 23.9712 154.316 23.9964C154.848 24.008 155.396 24.0207 155.927 24.0475L156.026 24.3304ZM117.388 24.6497C116.355 24.4151 115.407 24.8444 114.81 26.2336C115.647 26.2388 116.927 25.469 117.388 24.6497Z" fill="#E5E5E5"/>
    <path d="M77.8559 24.643C77.5179 24.6774 77.1345 24.7082 76.8615 24.8853C76.2863 25.2218 75.7226 25.6051 75.2159 26.0387C74.0391 27.0459 72.9738 28.1841 71.7145 29.0777C71.4729 29.242 71.2313 29.4063 70.9758 29.5542C70.9758 29.5542 70.9746 29.5693 70.9595 29.5681C70.1136 30.0513 69.1829 30.4514 68.308 30.917C68.5751 29.8532 69.762 29.4886 69.9036 28.2773C69.5596 28.3876 69.2544 28.394 69.0594 28.5467C68.2797 29.1574 67.5011 29.7529 67.0038 30.6457C66.6492 31.2748 66.8475 31.6572 67.5509 31.8199C68.09 31.939 68.5563 31.823 68.9983 31.6288C67.6092 33.1999 66.2214 34.7557 64.8195 36.2952C64.7015 36.4387 64.5102 36.5458 64.34 36.5782C63.89 36.6801 63.4273 36.7505 62.9646 36.8208C62.6709 36.874 62.3784 36.912 62.0846 36.9651C61.3736 37.0923 60.6475 37.2182 59.9353 37.3605C59.2243 37.4876 58.5133 37.6147 57.8035 37.7266C56.3034 38.0052 54.8044 38.2686 53.2916 38.5156L52.0712 38.7247C50.8043 38.9453 49.4919 39.1624 48.197 39.3503C46.6411 39.5633 45.0252 39.573 43.426 39.37L43.4109 39.3688C43.1232 39.346 42.815 39.5814 42.6806 39.7389C42.6141 39.81 42.5905 39.9151 42.61 40.0542C42.6282 40.2085 42.7023 40.4283 42.8325 40.515C43.7142 41.1197 44.6446 41.3003 45.4585 41.0285C46.9779 40.5069 48.4727 40.4877 50.0048 40.9604C50.2877 41.0439 50.5555 41.1262 50.8396 41.1946C51.466 41.3664 52.1215 41.5558 52.7255 41.8176C53.6379 42.226 54.4129 42.6388 54.6073 43.6475C54.8097 44.7486 54.4275 45.7269 54.0265 46.7496L53.989 46.8384C53.7381 47.5062 53.472 48.1728 53.192 48.823C53.0232 49.2223 52.8708 49.6076 52.7021 50.0068C52.6634 50.1107 52.6701 50.2182 52.7187 50.3749C52.8965 51.0155 53.1023 51.6889 53.9335 51.9687C54.0371 52.0074 54.1419 52.031 54.2327 52.0382C54.3236 52.0454 54.4005 52.0362 54.4798 51.9966C54.6397 51.9023 54.7007 51.7085 54.7442 51.5438C54.795 51.288 54.8596 51.0487 54.994 50.8912C55.5199 50.2146 56.0446 49.5531 56.5706 48.8765C57.0087 48.3458 57.433 47.7986 57.8724 47.2527C58.5175 46.4174 59.179 45.5681 59.8254 44.7176C60.2672 44.1413 60.709 43.565 61.1671 42.9747L61.5399 42.4999C62.7461 40.9297 64.0176 39.3034 65.2704 37.7216C65.4575 37.4766 65.7002 37.2971 65.8868 37.2508C66.3064 37.1465 66.7376 37.0889 67.1537 37.0301C67.4474 36.977 67.7248 36.9378 68.0186 36.8846C68.1736 36.8511 68.3019 36.7695 68.4152 36.6868C68.463 36.66 68.4969 36.6169 68.5447 36.5901L68.6719 36.5237L68.5159 35.9918L66.5463 36.2332L66.9809 35.7481C67.1982 35.5055 67.4155 35.2629 67.6328 35.0203C68.7308 33.8541 69.7973 32.7006 70.8802 31.5332C71.115 31.2615 71.3638 31.0061 71.6138 30.7355C72.6651 29.5809 73.7463 28.6273 74.9099 27.7872C75.8471 27.1125 76.7401 26.4191 77.5888 25.7069C77.6378 25.665 77.7032 25.609 77.7535 25.5518C77.8715 25.4084 77.9895 25.2649 78.1075 25.1214C78.1578 25.0643 77.9316 24.649 77.8559 24.643ZM54.7445 49.0376C54.7644 48.9781 54.7844 48.9185 54.8043 48.859C54.9464 48.4118 55.1048 47.9506 55.2341 47.4718L55.3024 47.1868C55.5858 46.1089 55.8704 45.0159 55.7207 43.8273C55.5618 42.5616 54.523 41.4403 53.1805 41.0742C52.3748 40.8576 51.5715 40.6107 50.724 40.3449C50.575 40.3026 50.4259 40.2602 50.2769 40.2178L63.6417 37.6997L54.7445 49.0376Z" fill="#E5E5E5"/>
    <path d="M57.0354 27.7938C57.6793 27.9365 58.4213 27.9952 58.7785 28.6806C59.2157 29.5099 59.0121 30.3495 58.1221 30.814C56.7246 31.5286 55.2889 32.1485 53.8137 32.6888C53.2167 32.9167 52.5025 32.8907 51.8466 32.8999C51.0531 32.9135 50.5948 32.159 50.8796 31.448C50.9358 31.3149 51.0375 31.1854 51.032 31.0627C50.9205 29.9689 51.6591 29.4925 52.4408 29.0501C53.8594 28.2607 55.3625 27.7531 57.0354 27.7938ZM52.9071 30.8597C53.864 30.7062 54.8125 30.659 55.7021 30.3932C56.1859 30.2481 56.2999 30.3488 56.4128 30.8468C56.8972 30.5031 57.344 30.2481 57.706 29.91C58.0843 29.5578 57.9908 29.199 57.5007 29.0379C56.8907 28.8521 56.2679 28.6347 55.6783 29.1535C55.5312 29.2794 55.2737 29.259 55.0824 29.3661C54.3486 29.7818 53.6438 30.215 52.9251 30.6319C52.9088 30.6459 52.9167 30.7382 52.9071 30.8597ZM51.9411 31.8988C52.2163 32.2721 54.27 31.9303 54.5368 31.4471C53.7034 31.5798 52.8374 31.7405 51.9411 31.8988Z" fill="#E5E5E5"/>
    <path d="M61.6734 30.8047C61.2576 31.2455 60.1247 32.8521 59.7517 32.9449C59.3635 33.0364 58.7121 32.6028 58.6222 32.1983C58.522 31.7319 58.8404 31.5585 59.2104 31.3127C59.9829 30.7931 60.6997 30.208 61.3746 29.5737C62.3637 28.6281 63.2832 27.6006 64.2583 26.6386C64.5398 26.3553 64.9643 26.1902 65.3152 26.5695C65.6801 26.9651 65.4356 27.3584 65.139 27.6405C64.0203 28.6829 62.8889 29.6936 61.6734 30.8047Z" fill="#E5E5E5"/>
    <path d="M65.4226 30.4137C65.7379 30.0872 66.0509 29.7911 66.3663 29.4645C66.9141 28.8966 67.4479 28.3123 68.0248 27.762C68.3377 27.4658 68.5017 27.1273 68.2241 26.7844C67.9325 26.4251 67.5092 26.575 67.2453 26.8292C66.7011 27.3516 66.272 27.9595 65.7278 28.4818C64.8356 29.3587 64.0828 30.3994 62.9372 31.0117C62.761 31.12 62.5807 31.4725 62.6093 31.6887C62.7067 32.3841 62.8759 32.749 63.5626 32.5435C64.1561 32.3613 64.4277 31.8173 64.7986 31.1743C64.8137 31.1755 65.3221 30.528 65.4226 30.4137Z" fill="#E5E5E5"/>
    <path d="M116.706 17.9833C116.751 18.3842 116.65 18.6971 116.02 18.5708C115.496 18.4529 114.973 17.9378 114.995 17.4658C115.026 17.071 115.439 16.6605 115.755 16.716C116.477 16.8343 116.783 17.21 116.706 17.9833Z" fill="#E5E5E5"/>
    <defs>
        <linearGradient id="paint0_linear_915_9652" x1="3.08887" y1="13.7896" x2="65.0443" y2="18.6931" gradientUnits="userSpaceOnUse">
            <stop stop-color="#FFB800"/>
            <stop offset="1" stop-color="#FF855F"/>
        </linearGradient>
        <linearGradient id="paint1_linear_915_9652" x1="3.08887" y1="13.7896" x2="65.0443" y2="18.6931" gradientUnits="userSpaceOnUse">
            <stop stop-color="#FFB800"/>
            <stop offset="1" stop-color="#FF855F"/>
        </linearGradient>
    </defs>
</svg>
