<svg width="157" height="65" viewBox="0 0 157 65" fill="none" xmlns="http://www.w3.org/2000/svg">
    <path d="M117.299 8.98797C117.274 9.68896 117.264 10.3911 117.239 11.0921C117.13 11.1141 117.021 11.1513 116.928 11.1745C116.809 10.9359 116.675 10.7113 116.49 10.3452C115.4 11.2217 114.191 12.0582 113.166 13.0773C112.19 14.0393 111.412 15.2155 110.549 16.2934C109.992 16.9828 109.42 17.6558 108.864 18.3301C108.324 18.9903 107.768 19.6645 107.242 20.3411C106.227 21.6209 105.211 22.9006 104.211 24.1815C104.091 24.3401 104.028 24.5644 103.917 24.8153C104.237 24.8101 104.512 24.8013 104.803 24.7785C105.316 25.4304 104.103 25.3497 104.38 25.8912C103.346 25.6718 102.962 25.9012 102.329 26.7833C101.659 27.7389 100.888 28.6253 100.173 29.5621C99.4616 30.4685 96.3443 34.623 96.0162 34.9179C96.0568 34.9823 96.0974 35.0466 96.1381 35.111C96.6642 34.8164 98.5309 34.7196 98.422 34.9403C98.2357 35.3687 97.0113 35.8219 96.82 35.929C95.847 36.4786 95.0261 37.2236 94.218 38.0001C93.5594 38.6204 91.5002 40.765 91.1286 41.2246C91.0608 41.3109 90.9416 41.4696 90.9416 41.4696C89.5928 42.7229 89.3417 41.0832 90.114 40.1815C90.9445 39.3151 96.0443 33.4073 96.8578 32.3714C97.5192 31.5221 98.0947 30.6049 98.755 29.7708C99.4165 28.9215 100.149 28.1389 100.839 27.3073C101.16 26.92 101.437 26.4987 101.692 26.1674C101.12 26.2598 100.506 26.3181 99.9177 26.4396C99.2975 26.5739 98.7004 26.8018 98.0815 26.9209C97.7411 26.9856 97.3813 26.9113 97.0306 26.9141C96.9912 26.8346 96.9494 26.7854 96.9378 26.7387C96.6893 25.4506 96.771 25.3807 98.1483 25.3063C99.2961 25.2443 100.453 25.0608 101.592 24.9217C101.607 24.9229 101.639 24.9101 101.654 24.9113C102.762 25.3505 103.085 24.3522 103.557 23.7783C104.684 22.431 105.711 21.0146 106.78 19.6322C108.187 17.8333 109.596 16.0193 111.06 14.2707C112.153 12.9666 113.303 11.7281 114.481 10.5071C115.181 9.75256 116.061 9.2262 117.056 8.96879L117.299 8.98797Z" fill="#E5E5E5"/>
    <path d="M96.6276 27.3866C96.3781 27.4585 96.0819 27.542 95.8161 27.628C95.7065 27.6651 95.5678 27.6847 95.5151 27.7722C95.1104 28.4585 94.3921 28.6767 93.7321 28.9301C92.9461 29.2346 92.1358 29.4609 91.3013 29.6088C91.0693 29.6515 90.6948 29.3774 90.4997 29.148C90.1651 28.7547 89.9192 28.7811 89.5596 29.0889C89.3144 29.2987 89.0553 29.4921 88.758 29.5909C88.07 29.8115 87.3646 30.0613 86.6408 30.1568C85.762 30.2859 85.5354 30.0693 85.2962 29.2405C85.2604 29.1154 85.2409 28.9763 85.196 28.7741C84.5179 29.2553 83.8562 29.7225 83.2096 30.1909C82.7567 30.5218 82.3015 30.8831 81.8626 31.2304C81.4237 31.5777 80.6103 31.6509 80.1971 31.4807C79.5755 31.2481 79.4916 30.7677 79.6979 30.2797C79.9791 29.6143 80.3488 28.9864 80.7754 28.4089C81.8835 26.9226 83.0347 25.4702 84.1718 24.0015C84.7843 23.1942 85.384 22.3553 85.9977 21.5328C86.3717 21.0428 86.7584 20.5844 87.1476 20.0956C87.2154 20.0093 87.2541 19.9054 87.3091 19.7875C86.2044 19.8834 85.5932 20.6755 84.9182 21.3098C83.8964 22.2834 82.9152 23.3213 81.9643 24.3616C80.58 25.872 79.2236 27.415 77.8533 28.9417C76.6839 30.2398 75.5145 31.538 74.373 32.8688C73.2479 34.1857 72.1657 35.5366 71.0708 36.8558C70.3312 37.7295 69.5474 38.5844 68.8508 39.492C68.2395 40.2841 67.7143 41.1442 67.131 41.9691C66.2226 43.242 65.3003 44.4985 64.4071 45.7726C63.1514 47.5835 57.097 56.5027 56.5612 56.9187C56.2737 57.278 54.7568 57.7693 55.4486 55.9596C55.9469 54.6695 64.3737 43.6917 64.5208 43.5658C64.5638 43.5997 64.5917 43.6325 64.6359 43.6513C64.5271 43.8719 64.4194 44.0773 64.3105 44.2979C69.9269 36.2916 76.5015 29.0793 83.1191 21.9009C82.5068 22.1276 82.1136 22.8605 81.2218 22.576C81.6867 22.0932 82.111 21.5461 82.6443 21.1604C83.6784 20.417 84.8089 19.8035 85.8581 19.0613C86.6015 18.5242 87.251 17.8268 87.9666 17.2569C89.2845 16.1997 90.4375 14.9156 92.0319 14.2166C92.2208 14.1399 92.3958 14.0467 92.5823 14.0004C92.9869 13.8948 93.4988 14.1646 93.5608 14.5363C93.6168 14.9839 93.3577 15.1773 92.9369 15.2968C91.7045 15.6577 90.5219 16.1601 89.5527 17.0462C89.3227 17.2572 89.066 17.4203 88.7264 17.6685C88.9371 17.7004 89.028 17.7076 89.1025 17.7288C89.3575 17.7796 89.77 17.7664 89.8501 17.9102C89.9811 18.1804 90.051 18.6444 89.9106 18.8778C89.5621 19.4309 89.0669 19.9113 88.6311 20.4117C87.4617 21.7098 86.2366 22.9423 85.1242 24.2908C83.8084 25.8982 82.5914 27.6052 81.3326 29.263C81.1795 29.4648 81.0403 29.683 80.9023 29.886C80.929 29.934 80.9545 29.9971 80.9963 30.0463C81.3754 29.8776 81.8114 29.7593 82.1359 29.5099C83.687 28.3949 85.2241 27.2634 86.7473 26.1156C87.2014 25.7694 87.5857 25.3414 87.9992 24.931C88.2304 24.7047 88.5294 24.3922 88.7732 24.7783C88.9217 25.0192 88.9299 25.4936 88.7871 25.7574C88.5893 26.1391 88.1854 26.428 87.8992 26.7721C87.4259 27.3612 86.9956 27.9843 86.5932 28.6402C87.7386 28.6085 88.8051 28.4179 89.7514 27.8204C89.9918 27.6713 90.1115 27.314 90.2997 27.0538C90.8105 26.376 91.3201 25.7134 91.8448 25.0519C91.9138 24.9504 92.0852 24.9029 92.2087 24.8821C93.0281 24.733 93.8336 24.5675 94.6482 24.4792C95.3253 24.3952 95.7659 24.7968 95.8353 25.4595C95.8786 25.8755 95.8134 26.3135 95.9348 26.7052C95.9901 26.9693 96.3136 27.1172 96.6276 27.3866ZM94.9871 25.973C94.4237 25.7756 93.9237 25.354 93.5747 26.1058C93.5735 26.1209 93.542 26.1337 93.5269 26.1325C92.8339 26.0318 92.6399 26.75 92.1628 27.0026C92.0671 27.0562 91.9722 27.2932 92.0255 27.3891C92.0637 27.4838 92.2849 27.5777 92.4084 27.5569C92.8699 27.5018 93.3478 27.4326 93.785 27.2991C94.4251 27.1053 94.7258 26.5789 94.9871 25.973Z" fill="#E5E5E5"/>
    <path d="M45.1686 35.1779L45.3324 35.1601C45.3326 35.1601 45.3329 35.16 45.3331 35.16C46.3482 35.0417 47.3173 34.9349 48.2856 34.8432C48.7177 34.7975 49.1576 34.765 49.5927 34.7329C49.8244 34.7158 50.0548 34.6987 50.2819 34.6799L50.2848 34.6796C50.8196 34.6458 51.3393 34.6107 51.8594 34.5755C52.1118 34.5498 52.3604 34.5239 52.6093 34.4979L52.6101 34.4978C52.8595 34.4717 53.1091 34.4457 53.3625 34.4199L53.363 34.4198C53.5783 34.3986 53.7973 34.3777 54.0161 34.3568C54.2349 34.3359 54.4535 34.3151 54.6682 34.2939L54.6699 34.2937C55.2687 34.2417 55.867 34.1935 56.4649 34.1454L56.4654 34.1453C57.0636 34.0972 57.6612 34.049 58.2591 33.9971L58.2604 33.997L58.2611 33.9969C59.625 33.891 60.9898 33.7851 62.3536 33.6943C62.9882 33.6443 63.377 33.6928 63.6146 33.7991C63.7369 33.8538 63.8235 33.9258 63.8798 34.0108C63.936 34.0956 63.9545 34.1824 63.9591 34.2545C63.9654 34.356 63.9519 34.4697 63.8819 34.5801C63.8133 34.6882 63.7011 34.7768 63.5419 34.8511C63.2286 34.9974 62.6857 35.1103 61.7647 35.1827C61.027 35.2468 60.2908 35.2956 59.5563 35.3444L59.5552 35.3444L59.5533 35.3446C58.6369 35.394 57.7194 35.4587 56.8006 35.5385C56.1909 35.5964 55.5781 35.6846 54.9612 35.7734L54.9585 35.7738C54.7985 35.7938 54.6371 35.8155 54.4745 35.8373C54.1116 35.886 53.7427 35.9355 53.3697 35.9697C51.5714 36.1636 49.7742 36.3423 47.963 36.5046C47.9628 36.5047 47.9625 36.5047 47.9622 36.5047L46.0131 36.7016L46.0061 36.7023L46.0061 36.7022C45.8943 36.7082 45.7816 36.718 45.6684 36.7281L45.6365 36.731C45.5349 36.7401 45.4328 36.7493 45.3338 36.7556C45.3335 36.7556 45.3331 36.7556 45.3328 36.7557L45.2709 36.7604C44.7991 36.7965 44.324 36.8328 43.8739 36.912L43.8728 36.9122C43.6619 36.9477 43.402 37.0904 43.2213 37.2709L43.2208 37.2713C42.47 38.0149 41.7255 38.765 40.9784 39.5176C40.5745 39.9246 40.1698 40.3322 39.763 40.7401C39.4472 41.067 39.128 41.3898 38.8095 41.7119C38.4906 42.0344 38.1723 42.3562 37.8577 42.682L37.8568 42.6829C37.3996 43.148 36.9258 43.6039 36.4559 44.0561C36.2937 44.2122 36.132 44.3678 35.9716 44.5232L35.9704 44.5243C35.4993 44.9708 35.0469 45.2039 34.6341 45.1713C34.417 45.1541 34.2246 45.0652 34.0603 44.9115C33.6509 44.557 33.3991 43.9456 33.2619 43.1462M45.1686 35.1779L7.49335 37.1114C7.38567 37.1243 7.27803 37.1366 7.17039 37.1488C6.73985 37.1979 6.30931 37.247 5.87569 37.3349L5.8461 37.1878C5.84602 37.1879 5.84595 37.1879 5.84588 37.1879C4.48071 37.4626 3.11051 37.8131 1.94451 38.1178C1.67587 38.1695 1.49851 38.3605 1.37544 38.4931C1.36743 38.5017 1.35965 38.5101 1.35209 38.5182L1.35167 38.5178L1.34363 38.5281C1.31299 38.5671 1.26961 38.6159 1.23091 38.649L1.00208 38.8448L0.884456 38.9455L0.988782 39.0599L1.1991 39.2905L1.20454 39.2964L1.21058 39.3018C1.2488 39.3356 1.27866 39.381 1.3213 39.4485L1.32524 39.4548L1.32978 39.4606C1.34375 39.4785 1.35818 39.4975 1.37317 39.5173C1.50641 39.6927 1.68397 39.9264 1.97947 40.0015C2.23184 40.0756 2.50087 40.0944 2.7435 40.1113C2.79072 40.1146 2.83695 40.1179 2.88185 40.1214L2.88182 40.1219L2.89339 40.1219C3.08375 40.1223 3.27292 40.1372 3.46096 40.1668C4.61854 40.3488 5.75366 40.2372 6.83796 40.1305C6.87418 40.1269 6.91036 40.1234 6.94647 40.1198L6.94701 40.1198C7.4535 40.0683 7.95742 40.017 8.45976 39.9808C9.24138 39.9507 10.0249 39.8902 10.8051 39.8299L10.8057 39.8299L10.8063 39.8299L13.6101 39.624C13.6101 39.624 13.6102 39.624 13.6102 39.624C14.8362 39.5376 16.0476 39.45 17.2756 39.3484L17.2762 39.3484C18.6581 39.2283 20.0259 39.0919 21.4098 38.9416C21.4101 38.9415 21.4103 38.9415 21.4106 38.9415L23.482 38.739C24.0034 38.6887 24.54 38.6396 25.0771 38.5904C26.121 38.5047 27.1662 38.4039 28.2125 38.2879C29.4447 38.1557 30.4959 38.0992 31.4607 38.7279L31.4621 38.7287C31.8323 38.9645 32.165 39.1875 32.4266 39.4334C32.6866 39.6777 32.8685 39.9375 32.9464 40.2441L32.9463 40.2441L32.9476 40.2485C33.0853 40.7296 33.1175 41.2651 33.1477 41.8511L33.1479 41.8535C33.1541 41.9453 33.1595 42.0397 33.165 42.136C33.1837 42.4649 33.2037 42.8144 33.2619 43.1462M45.1686 35.1779L46.188 34.0942L46.1884 34.0938C46.581 33.6732 46.9698 33.2573 47.3563 32.844C48.1334 32.013 48.9007 31.1924 49.6685 30.3651C49.9932 30.0164 50.3139 29.6711 50.6345 29.326L50.6345 29.3259C50.9552 28.9807 51.2758 28.6356 51.6004 28.287L51.6012 28.2861C52.6846 27.1042 53.7832 25.9235 54.8822 24.7423C55.6384 23.9491 56.4044 23.1634 57.1721 22.3758C57.6693 21.8657 58.1673 21.3548 58.6639 20.8407C58.664 20.8406 58.6641 20.8405 58.6642 20.8404L60.3385 19.1244L60.4272 19.0335L60.3522 18.9311L59.8296 18.2173L59.7605 18.1229L59.6522 18.1669L59.4318 18.2565L59.4317 18.2563L59.4241 18.2598C59.3234 18.3074 59.2223 18.342 59.1015 18.3768L59.1014 18.3767L59.0958 18.3786C59.0815 18.3833 59.0671 18.3881 59.0525 18.3929C58.7721 18.4856 58.4466 18.5932 58.1857 18.8314L58.1857 18.8314L58.1832 18.8338C57.471 19.5144 56.8026 20.2286 56.1536 20.9255C56.1534 20.9258 56.1532 20.926 56.1529 20.9262L55.4735 21.6348L55.4716 21.6369C55.3475 21.7711 55.2196 21.9052 55.0907 22.0404L55.0904 22.0407C54.9621 22.1751 54.8329 22.3106 54.7073 22.4465C54.5841 22.5758 54.4634 22.7044 54.3431 22.8325C54.1036 23.0876 53.8659 23.3408 53.6135 23.5943L53.6117 23.5963C53.2309 23.9928 52.8511 24.3743 52.4541 24.7706L52.4534 24.7713L52.4525 24.7723C51.9063 25.3246 51.3594 25.8777 50.8111 26.446L50.8111 26.446L50.8087 26.4486C50.6243 26.6492 50.4435 26.8537 50.2639 27.0569L50.2635 27.0573C50.0834 27.261 49.9045 27.4635 49.7222 27.6616L49.7222 27.6616L49.7193 27.6649C49.434 27.9941 49.1503 28.3214 48.8516 28.6474L45.1686 35.1779ZM33.2619 43.1462C33.2619 43.1461 33.2619 43.1461 33.2619 43.146L33.4097 43.1206L33.262 43.1466C33.262 43.1465 33.262 43.1463 33.2619 43.1462ZM32.0477 36.4569C32.1023 36.4548 32.157 36.4527 32.2119 36.4506C32.9405 36.4228 33.6929 36.3941 34.4352 36.3249C35.6017 36.2186 36.7845 36.0983 37.9522 35.9767L32.0477 36.4569ZM32.0477 36.4569L31.1761 36.4949L32.0477 36.4569ZM27.7768 36.3175C27.5873 36.2989 27.3962 36.2791 27.2036 36.2593C26.5974 36.1968 25.9779 36.133 25.3564 36.0954C23.5193 36.0111 21.647 35.9852 19.7852 36.0212C17.512 36.0553 15.6454 36.152 13.9428 36.2924L27.7768 36.3175ZM10.1412 36.7709C9.53982 36.8608 8.93843 36.9507 8.33824 37.0255L10.1412 36.7709ZM35.0073 40.746L35.0068 40.7435C34.7593 39.5921 34.2645 38.6334 33.5199 37.873L40.8123 37.2008C40.461 37.5575 40.1092 37.9166 39.7565 38.2852C39.6952 38.3475 39.6338 38.4098 39.5723 38.4722C38.2564 39.8085 36.9104 41.1753 35.3437 42.3642L35.3153 42.2346C35.2038 41.7226 35.105 41.242 35.0073 40.746ZM25.0095 37.2202C24.7851 37.2427 24.5608 37.2652 24.3365 37.2877C18.1657 37.9065 12.0123 38.5235 5.82958 38.709C12.1796 37.5325 18.545 36.7826 25.0095 37.2202Z" fill="url(#paint0_linear_659_116)" stroke="url(#paint1_linear_659_116)" stroke-width="0.3"/>
    <path d="M156.025 24.3657C155.623 24.4409 155.233 24.5628 154.82 24.576C152.604 24.6604 150.364 24.6664 148.159 24.7976C145.74 24.9423 143.312 25.1934 140.89 25.3837C140.23 25.4384 139.545 25.4301 138.884 25.5C138.47 25.5436 138.073 25.7414 137.656 25.8154C136.622 25.9781 135.578 26.0788 134.544 26.2415C133.941 26.3466 133.336 26.4821 132.743 26.6644C131.744 26.9674 130.767 26.7983 129.769 26.6889C129.18 26.6269 128.554 26.6385 128.015 27.1002C127.801 27.2972 127.388 27.3256 127.067 27.3308C126.534 27.3344 125.952 27.3648 125.497 27.1454C125.1 26.9612 124.851 26.4524 124.56 26.0931C123.8 26.4457 122.916 26.8341 122.031 27.2378C121.731 27.3669 121.443 27.5428 121.132 27.6251C120.416 27.813 120.286 27.7262 120.033 27.0644C119.972 26.8762 119.879 26.7007 119.775 26.4785C119.014 26.8462 118.283 27.2315 117.497 27.5361C117.057 27.7 116.552 27.7363 116.075 27.7903C115.429 27.8615 114.772 27.8859 114.126 27.957C113.25 28.0558 112.947 27.8483 112.739 27.0067C112.73 26.9296 112.704 26.8664 112.668 26.7413C112.005 27.0403 111.387 27.3428 110.754 27.629C110.392 27.7837 110.027 27.9687 109.64 28.0451C108.944 28.1734 108.419 27.8721 108.081 27.1423C107.599 27.4556 107.148 27.7562 106.685 28.0252C106.398 28.1858 106.038 28.4936 105.749 28.1039C105.474 27.7307 105.145 27.2615 105.517 26.8019C106.273 25.9142 107.087 25.0618 107.914 24.2408C108.046 24.1138 108.428 24.0982 108.619 24.1897C108.766 24.2624 108.819 24.5569 108.893 24.7767C108.93 24.8867 108.875 25.0046 108.863 25.1564C109.383 24.9378 109.723 24.1089 110.364 24.664C110.707 24.9509 110.335 25.8078 109.606 26.3462C109.879 26.3677 110.072 26.4289 110.228 26.3801C111.322 26.0388 112.417 25.6823 113.246 24.831C113.661 24.4053 113.752 24.4125 114.203 24.8761C114.72 23.9237 115.663 23.5552 116.575 23.1995C116.937 23.06 117.51 23.1359 117.859 23.3469C118.31 23.6119 118.609 24.0787 118.361 24.7009C118.245 25.0127 118.263 25.3656 118.214 25.7896C118.874 25.5362 119.574 25.3623 120.211 25.0154C121.054 24.5626 121.845 23.9986 122.634 23.4651C122.925 23.2589 123.24 23.131 123.476 23.4247C123.67 23.6693 123.901 24.0238 123.554 24.3631C123.29 24.6173 123.011 24.8703 122.732 25.1232C122.6 25.2503 122.455 25.3459 122.309 25.4566C122.35 25.5209 122.376 25.5689 122.417 25.6332C123.457 25.196 124.499 24.7435 125.537 24.3366C125.772 24.2483 126.111 24.1987 126.301 24.3054C126.637 24.4849 126.502 24.841 126.403 25.1387C126.187 25.7482 126.19 25.7026 126.86 25.7098C127.82 25.7094 128.668 25.3944 129.52 25.0339C129.724 24.9584 130.014 24.9508 130.189 25.0411C130.85 25.3532 131.472 25.3871 132.173 25.1981C132.796 25.0334 133.474 25.1329 134.118 25.0769C136.082 24.9114 138.049 24.7004 140.011 24.55C141.851 24.4053 143.689 24.2909 145.541 24.1778C146.996 24.0942 148.451 23.9955 149.9 23.9726C151.365 23.951 152.839 24.0065 154.315 24.0317C154.847 24.0432 155.395 24.056 155.926 24.0828L156.025 24.3657ZM117.387 24.685C116.354 24.4504 115.406 24.8797 114.809 26.2689C115.646 26.274 116.926 25.5043 117.387 24.685Z" fill="#E5E5E5"/>
    <path d="M77.8554 24.6783C77.5174 24.7127 77.134 24.7435 76.861 24.9205C76.2858 25.2571 75.7221 25.6403 75.2154 26.074C74.0386 27.0811 72.9733 28.2194 71.714 29.113C71.4724 29.2773 71.2309 29.4416 70.9754 29.5894C70.9754 29.5894 70.9742 29.6046 70.959 29.6034C70.1132 30.0866 69.1825 30.4867 68.3075 30.9523C68.5746 29.8884 69.7615 29.5239 69.9031 28.3126C69.5591 28.4229 69.2539 28.4293 69.0589 28.582C68.2792 29.1927 67.5006 29.7882 67.0033 30.681C66.6488 31.3101 66.8471 31.6925 67.5504 31.8552C68.0895 31.9742 68.5558 31.8583 68.9978 31.6641C67.6088 33.2351 66.2209 34.791 64.819 36.3305C64.701 36.474 64.5097 36.5811 64.3395 36.6135C63.8896 36.7154 63.4268 36.7858 62.9641 36.8561C62.6704 36.9093 62.3779 36.9473 62.0842 37.0004C61.3732 37.1275 60.647 37.2534 59.9348 37.3957C59.2238 37.5228 58.5128 37.65 57.803 37.7619C56.3029 38.0405 54.804 38.3039 53.2911 38.5509L52.0708 38.76C50.8038 38.9806 49.4914 39.1977 48.1965 39.3855C46.6407 39.5986 45.0247 39.6082 43.4255 39.4053L43.4104 39.4041C43.1227 39.3813 42.8145 39.6167 42.6801 39.7742C42.6136 39.8453 42.59 39.9504 42.6095 40.0895C42.6277 40.2438 42.7018 40.4636 42.8321 40.5503C43.7137 41.1549 44.6442 41.3355 45.458 41.0638C46.9774 40.5422 48.4722 40.5229 50.0043 40.9957C50.2872 41.0792 50.555 41.1615 50.8391 41.2299C51.4655 41.4017 52.121 41.5911 52.725 41.8529C53.6374 42.2613 54.4124 42.6741 54.6068 43.6828C54.8092 44.7838 54.427 45.7622 54.0261 46.7849L53.9886 46.8736C53.7376 47.5415 53.4715 48.2081 53.1915 48.8583C53.0227 49.2576 52.8704 49.6428 52.7016 50.0421C52.6629 50.146 52.6696 50.2535 52.7182 50.4102C52.8961 51.0508 53.1018 51.7242 53.933 52.004C54.0366 52.0427 54.1414 52.0663 54.2322 52.0735C54.3231 52.0807 54.4 52.0715 54.4793 52.0319C54.6392 51.9376 54.7002 51.7438 54.7437 51.5791C54.7945 51.3233 54.8591 51.0839 54.9935 50.9265C55.5194 50.2498 56.0441 49.5884 56.5701 48.9118C57.0083 48.381 57.4325 47.8339 57.8719 47.288C58.517 46.4527 59.1785 45.6034 59.8249 44.7529C60.2667 44.1766 60.7085 43.6003 61.1666 43.01L61.5394 42.5352C62.7456 40.9649 64.0172 39.3387 65.27 37.7569C65.457 37.5119 65.6997 37.3324 65.8863 37.2861C66.3059 37.1817 66.7372 37.1242 67.1532 37.0654C67.447 37.0122 67.7243 36.9731 68.0181 36.9199C68.1731 36.8863 68.3015 36.8048 68.4147 36.7221C68.4625 36.6953 68.4964 36.6521 68.5442 36.6254L68.6714 36.559L68.5154 36.0271L66.5458 36.2685L66.9804 35.7833C67.1977 35.5407 67.415 35.2981 67.6323 35.0556C68.7303 33.8893 69.7968 32.7359 70.8797 31.5685C71.1145 31.2967 71.3633 31.0414 71.6133 30.7708C72.6646 29.6162 73.7458 28.6626 74.9094 27.8225C75.8466 27.1478 76.7396 26.4544 77.5883 25.7422C77.6374 25.7002 77.7027 25.6443 77.753 25.5871C77.871 25.4436 77.989 25.3002 78.107 25.1567C78.1573 25.0995 77.9311 24.6843 77.8554 24.6783ZM54.744 49.0729C54.764 49.0133 54.7839 48.9538 54.8039 48.8942C54.9459 48.447 55.1043 47.9858 55.2336 47.507L55.3019 47.2221C55.5853 46.1442 55.8699 45.0512 55.7202 43.8626C55.5613 42.5969 54.5225 41.4755 53.18 41.1095C52.3743 40.8929 51.571 40.6459 50.7235 40.3802C50.5745 40.3378 50.4254 40.2955 50.2764 40.2531L63.6412 37.7349L54.744 49.0729Z" fill="#E5E5E5"/>
    <path d="M57.0349 27.829C57.6789 27.9716 58.4209 28.0304 58.778 28.7158C59.2153 29.545 59.0117 30.3847 58.1216 30.8491C56.7241 31.5637 55.2884 32.1836 53.8132 32.724C53.2162 32.9518 52.5021 32.9259 51.8461 32.9351C51.0526 32.9487 50.5943 32.1942 50.8791 31.4832C50.9354 31.3501 51.037 31.2206 51.0315 31.0979C50.92 30.0041 51.6586 29.5277 52.4403 29.0852C53.859 28.2959 55.362 27.7883 57.0349 27.829ZM52.9066 30.8948C53.8635 30.7413 54.812 30.6941 55.7016 30.4283C56.1854 30.2833 56.2994 30.384 56.4123 30.8819C56.8967 30.5382 57.3435 30.2832 57.7055 29.9451C58.0839 29.593 57.9904 29.2341 57.5002 29.0731C56.8902 28.8873 56.2674 28.6699 55.6778 29.1886C55.5307 29.3145 55.2733 29.2942 55.0819 29.4013C54.3481 29.8169 53.6433 30.2502 52.9246 30.667C52.9083 30.681 52.9162 30.7733 52.9066 30.8948ZM51.9406 31.9339C52.2158 32.3072 54.2695 31.9654 54.5363 31.4823C53.7029 31.615 52.8369 31.7757 51.9406 31.9339Z" fill="#E5E5E5"/>
    <path d="M61.6729 30.8397C61.2571 31.2805 60.1242 32.8872 59.7512 32.9799C59.363 33.0714 58.7116 32.6378 58.6217 32.2334C58.5215 31.767 58.84 31.5935 59.2099 31.3477C59.9824 30.8282 60.6992 30.243 61.3741 29.6088C62.3633 28.6632 63.2827 27.6357 64.2578 26.6737C64.5393 26.3903 64.9638 26.2252 65.3147 26.6045C65.6796 27.0001 65.4351 27.3934 65.1385 27.6756C64.0199 28.7179 62.8884 29.7286 61.6729 30.8397Z" fill="#E5E5E5"/>
    <path d="M65.4216 30.4488C65.737 30.1222 66.0499 29.8261 66.3653 29.4996C66.9131 28.9317 67.4469 28.3473 68.0238 27.797C68.3368 27.5009 68.5007 27.1624 68.2231 26.8195C67.9315 26.4602 67.5082 26.6101 67.2443 26.8643C66.7001 27.3866 66.2711 27.9945 65.7269 28.5169C64.8346 29.3937 64.0818 30.4344 62.9362 31.0467C62.76 31.155 62.5797 31.5075 62.6083 31.7237C62.7057 32.4191 62.8749 32.784 63.5616 32.5786C64.1551 32.3963 64.4267 31.8524 64.7976 31.2093C64.8127 31.2105 65.3211 30.5631 65.4216 30.4488Z" fill="#E5E5E5"/>
    <path d="M116.706 18.0186C116.75 18.4194 116.649 18.7324 116.019 18.6061C115.495 18.4882 114.972 17.9731 114.994 17.5011C115.026 17.1062 115.439 16.6958 115.755 16.7513C116.477 16.8696 116.782 17.2453 116.706 18.0186Z" fill="#E5E5E5"/>
    <defs>
        <linearGradient id="paint0_linear_659_116" x1="3.08887" y1="13.8247" x2="65.0443" y2="18.7282" gradientUnits="userSpaceOnUse">
            <stop stop-color="#FFB800"/>
            <stop offset="1" stop-color="#FF855F"/>
        </linearGradient>
        <linearGradient id="paint1_linear_659_116" x1="3.08887" y1="13.8247" x2="65.0443" y2="18.7282" gradientUnits="userSpaceOnUse">
            <stop stop-color="#FFB800"/>
            <stop offset="1" stop-color="#FF855F"/>
        </linearGradient>
    </defs>
</svg>
